<?xml version="1.0" standalone="no"?>
<!DOCTYPE svg PUBLIC "-//W3C//DTD SVG 20010904//EN"
 "http://www.w3.org/TR/2001/REC-SVG-20010904/DTD/svg10.dtd">
<svg version="1.0" xmlns="http://www.w3.org/2000/svg"
 width="420.000000pt" height="420.000000pt" viewBox="0 0 420.000000 420.000000"
 preserveAspectRatio="xMidYMid meet">
<metadata>
Created by potrace 1.11, written by Peter Selinger 2001-2013
</metadata>
<g transform="translate(0.000000,420.000000) scale(0.100000,-0.100000)"
fill="#000000" stroke="none">
<path d="M1885 3543 c-125 -129 -174 -170 -197 -165 -5 1 -8 -2 -8 -8 0 -5 -5
-10 -11 -10 -17 0 -117 -70 -159 -111 -21 -21 -40 -35 -43 -33 -3 3 -8 -4 -12
-15 -3 -12 -11 -21 -16 -21 -5 0 -9 -7 -9 -15 0 -8 -9 -19 -21 -25 -11 -7 -18
-14 -15 -17 2 -3 -4 -15 -15 -26 -11 -12 -33 -52 -50 -89 -18 -37 -34 -66 -38
-65 -8 2 -91 -82 -91 -94 0 -5 -4 -8 -9 -6 -11 2 -51 -42 -51 -56 0 -6 -3 -8
-6 -4 -7 6 -74 -60 -74 -74 0 -5 -3 -8 -7 -7 -10 3 -93 -80 -93 -93 0 -5 -4
-8 -9 -6 -10 2 -51 -41 -51 -55 0 -4 -3 -7 -7 -6 -11 3 -182 -169 -175 -176 3
-3 0 -6 -6 -6 -7 0 -21 -9 -32 -20 -11 -11 -20 -25 -20 -32 0 -6 -3 -9 -6 -5
-7 6 -74 -60 -74 -74 0 -5 -3 -8 -8 -7 -4 1 -46 -36 -93 -83 -69 -69 -84 -90
-77 -103 5 -9 14 -13 20 -10 6 4 8 3 5 -3 -7 -12 28 -44 39 -35 4 4 4 2 1 -4
-8 -14 26 -47 39 -37 5 5 6 4 2 0 -8 -11 23 -48 34 -41 5 3 7 0 6 -7 -2 -7 8
-18 22 -26 14 -7 21 -13 16 -13 -5 0 -1 -9 9 -20 10 -11 23 -17 29 -13 6 3 8
3 4 -1 -9 -11 23 -46 35 -39 6 3 7 2 4 -4 -7 -12 28 -44 39 -35 4 4 4 2 1 -4
-7 -13 28 -45 39 -36 4 4 4 2 1 -4 -4 -6 2 -19 13 -29 11 -10 20 -14 20 -9 0
5 6 -2 13 -16 8 -14 19 -24 26 -22 7 1 10 -1 7 -6 -7 -11 30 -42 40 -34 4 4 4
2 1 -4 -7 -13 28 -45 39 -36 4 4 4 2 1 -4 -7 -13 26 -47 36 -37 4 3 7 1 7 -6
0 -17 26 -42 35 -33 5 4 5 2 2 -4 -7 -13 26 -47 36 -37 4 3 7 0 7 -9 0 -17 45
-59 54 -51 3 4 6 0 6 -8 0 -19 51 -69 70 -69 7 0 11 -3 7 -6 -8 -8 34 -54 50
-54 8 0 12 -4 9 -9 -7 -11 19 -33 28 -23 4 4 6 2 4 -4 -4 -13 57 -75 66 -67 3
4 6 0 6 -9 0 -17 51 -64 65 -60 6 2 7 0 3 -4 -10 -9 12 -35 23 -28 5 3 9 -2 9
-11 0 -8 10 -20 23 -25 12 -5 18 -9 13 -9 -5 -1 -3 -8 4 -16 7 -8 16 -12 21
-9 5 3 8 1 7 -4 -4 -11 66 -82 81 -82 6 0 10 -5 9 -12 -2 -6 8 -17 22 -25 14
-7 21 -13 16 -13 -5 0 -3 -7 4 -15 7 -8 16 -12 21 -9 5 3 8 1 7 -4 -4 -11 66
-82 82 -82 6 0 9 -4 6 -8 -6 -10 35 -48 47 -44 5 1 6 -2 3 -7 -3 -5 1 -14 9
-21 8 -7 15 -9 15 -4 0 5 6 -2 13 -16 8 -14 19 -24 25 -22 7 1 12 -3 12 -9 0
-16 101 -115 114 -111 6 2 8 1 4 -3 -4 -4 4 -19 17 -33 l25 -27 821 822 822
821 -304 303 c-167 167 -307 303 -311 302 -5 -2 -8 1 -8 7 0 5 -61 71 -135
145 -74 74 -135 142 -135 150 0 8 -4 15 -9 15 -5 0 -12 14 -16 30 -4 17 -11
30 -17 30 -6 0 -8 3 -5 7 4 3 -4 21 -18 39 -14 18 -25 37 -25 42 0 6 -7 13
-16 16 -9 4 -14 9 -11 13 11 10 -145 155 -188 175 -14 6 -25 15 -25 20 0 4 -9
8 -20 8 -11 0 -20 5 -20 10 0 6 -9 10 -20 10 -11 0 -20 4 -20 9 0 7 -36 22
-62 25 -3 1 -10 5 -15 10 -5 6 -2 6 7 1 8 -5 -50 55 -129 133 -78 78 -144 141
-144 141 -1 -1 -65 -67 -142 -146z"/>
</g>
</svg>
